<?xml version="1.0" encoding="UTF-8"?>
<svg id="Layer_1" data-name="Layer 1" xmlns="http://www.w3.org/2000/svg" viewBox="0 0 79.77 79.77">
  <defs>
    <style>
      .cls-1 {
        fill: #ff3a00;
      }

      .cls-2 {
        fill: #0f0f0f;
      }
    </style>
  </defs>
  <polygon class="cls-1" points="39.88 0 39.42 .23 .57 19.6 0 19.88 0 20.52 0 59.25 0 59.88 .57 60.17 39.42 79.53 39.88 79.77 40.35 79.53 79.19 60.17 79.77 59.88 79.77 59.25 79.77 20.52 79.77 19.88 79.19 19.6 40.35 .23 39.88 0 39.88 0"/>
  <g>
    <path class="cls-2" d="M39.88,1.12h.02s38.85,19.37,38.85,19.37h.02v38.78h-.02s-38.85,19.37-38.85,19.37h-.02s-.02,0-.02,0L1.02,59.27h-.02V20.5h.02S39.87,1.13,39.87,1.13h.02M39.88,0l-.46.23L.57,19.6,0,19.88v40l.57.28,38.85,19.37.46.23.46-.23,38.85-19.37.57-.28V19.88l-.57-.28L40.35.23,39.88,0h0Z"/>
    <path class="cls-2" d="M39.88,2.27l37.73,18.81v37.61l-37.73,18.81L2.16,58.69V21.08L39.88,2.27M39.88,0l-.46.23L.57,19.6l-.57.28v40l.57.28,38.85,19.37.46.23.46-.23,38.85-19.37.57-.28V19.88l-.57-.28L40.35.23l-.46-.23h0Z"/>
    <path class="cls-2" d="M72.76,54.64l-10.98-5.45,5.96-2.96v-18.5h0s5.03-2.5,5.03-2.5v29.41s0,0,0,0ZM41.3,40.75v25.4h0v.66h-2.82v-.66h0v-15.99l-18.55-9.21v-3.65l18.55,9.21v-5.76l-22.77-11.3h0s-3.62-1.78-3.62-1.78l1.64-2.37,2.23,1.13,23.94,11.88,16.8-8.34-19.03-9.45,3.17-1.57,19.03,9.45,1.1-.54h0s5.11-2.54,5.11-2.54l1.56,2.37-26.31,13.06ZM60.61,43.52l-11.96,5.94v-6.29l11.82-5.87.13,6.22ZM7,54.64v-29.48s5.03,2.51,5.03,2.51v15.57l19.1,9.48v3.14l-19.1-9.48v5.76l-5.03,2.5h0ZM13.61,54.5l24.86,12.34v4.99l-29.88-14.84,5.03-2.5ZM26.43,26.1l6.33-3.14,11.88,5.9-6.33,3.14-11.88-5.9ZM41.3,7.93l29.83,14.81-5.03,2.5-24.8-12.31v-4.99ZM38.47,12.93l-24.8,12.31-5.03-2.49,29.83-14.81v4.99ZM41.3,66.84l7.36-3.65v-7.49l9.96-4.94,12.57,6.24-29.88,14.84v-4.99ZM75.22,57.5V22.27L39.88,4.65,4.55,22.27v35.23l35.34,17.61,35.34-17.61Z"/>
  </g>
</svg>