<svg width="212" height="212" viewBox="0 0 212 212" fill="none" xmlns="http://www.w3.org/2000/svg">
<path d="M0 159V53L106 0L212 53V159L106 212L0 159Z" fill="#FF3A00"/>
<g clip-path="url(#clip0_2546_1162)">
<path d="M187.837 20H24.163C15.8018 20 9 26.7895 9 35.1356V162.232C9 170.578 15.8018 177.367 24.163 177.367H92.1275L124.201 191.027V177.367H187.864C196.225 177.367 203.027 170.578 203.027 162.232V35.1356C203.027 26.7895 196.225 20 187.864 20H187.837ZM196.951 162.205C196.951 167.223 192.864 171.275 187.864 171.275H118.152V181.822L93.3911 171.275H24.163C19.1355 171.275 15.0759 167.196 15.0759 162.205V35.1356C15.0759 30.1441 19.1624 26.065 24.163 26.065H187.837C192.864 26.065 196.924 30.1441 196.924 35.1356V162.232L196.951 162.205ZM121.163 122.863H154.5V128.928H121.163V122.863ZM96.913 122.863H115.087V128.928H96.913V122.863ZM57.5 122.863H90.837V128.928H57.5V122.863ZM57.5 147.069H136.299V153.134H57.5V147.069ZM57.5 134.966H154.5V141.031H57.5V134.966ZM45.375 119.857H51.4509V131.96H45.375V119.857ZM33.25 119.857H39.2991V131.96H33.25V119.857ZM172.701 144.064H178.75V156.167H172.701V144.064ZM160.576 144.064H166.625V156.167H160.576V144.064ZM59.4357 98.4958L51.908 102.655L40.1325 81.4816L47.6602 77.2952C47.5795 76.3559 47.5258 75.3898 47.5258 74.4506C47.5258 73.1624 47.6064 71.8475 47.7946 70.5593L40.4013 66.1314L52.8758 45.387L60.2691 49.815C62.1242 48.5 64.0867 47.3997 66.1838 46.541L66.3182 37.9534L90.5682 38.3559L90.4338 46.9435C91.4823 47.4266 92.477 47.9364 93.4448 48.5C94.4127 49.0636 95.3268 49.7076 96.2408 50.4054L103.769 46.2458L108.635 55.0212L105.973 56.4972L103.312 57.9732L101.376 54.5113L95.4612 57.7853L93.8481 56.363C92.6652 55.3164 91.4823 54.4576 90.2724 53.733C89.0357 53.0085 87.7453 52.3644 86.2666 51.8277L84.2772 51.0763L84.3847 44.3404L72.2597 44.1257L72.1522 50.8616L70.1089 51.5325C67.286 52.4717 64.7051 53.9209 62.393 55.8263L60.753 57.1949L54.946 53.7062L48.7087 64.0918L54.5158 67.5537L54.0856 69.6469C53.763 71.2302 53.6017 72.8672 53.6017 74.4774C53.6017 75.8192 53.7093 77.161 53.9243 78.476L54.2738 80.596L48.3592 83.8701L54.2469 94.4435L60.1347 91.1695L61.7478 92.5918C62.9307 93.6384 64.0868 94.4972 65.3234 95.2217C66.5601 95.9463 67.8506 96.5904 69.3293 97.1271L71.3187 97.8785L71.2112 104.614L83.3362 104.829L83.4437 98.0932L85.487 97.4223C88.3099 96.483 90.8908 95.0339 93.2029 93.1285L94.8428 91.7599L100.623 95.2486L102.881 91.4915L105.489 93.048L108.097 94.6045L102.72 103.541L95.3268 99.113C93.4717 100.428 91.5091 101.528 89.4121 102.387L89.2777 110.975L65.0277 110.572L65.1621 101.984C64.1136 101.501 63.1189 100.992 62.1511 100.428C61.1832 99.8644 60.2691 99.2203 59.355 98.5226L59.4357 98.4958ZM78.712 62.3475C72.0177 62.3475 66.587 67.7684 66.587 74.4506C66.587 81.1328 72.0177 86.5537 78.712 86.5537C85.4063 86.5537 90.837 81.1328 90.837 74.4506C90.837 67.7684 85.4063 62.3475 78.712 62.3475ZM78.712 80.5155C75.3783 80.5155 72.663 77.8051 72.663 74.4506C72.663 71.096 75.3783 68.3856 78.712 68.3856C82.0457 68.3856 84.7611 71.096 84.7611 74.4506C84.7611 77.8051 82.0457 80.5155 78.712 80.5155ZM108.769 87.7076C113.904 99.4887 125.68 107.754 139.364 107.754C157.753 107.754 172.701 92.8333 172.701 74.4774C172.701 70.2641 171.894 66.1582 170.335 62.2401L170.389 62.1864L169.475 60.2542L167.647 56.363L167.432 56.5777C165.227 53.1427 162.431 50.137 159.151 47.7217L159.339 47.5339L155.952 45.6017C155.952 45.6017 155.925 45.6017 155.898 45.5749L153.882 44.4209L153.828 44.4746C149.311 42.3008 144.364 41.1469 139.364 41.1469C125.626 41.1469 113.823 49.4661 108.715 61.3277C106.995 65.3531 106.027 69.7811 106.027 74.4237C106.027 79.0664 107.022 83.6017 108.796 87.6808L108.769 87.7076ZM139.337 47.2387C142.698 47.2387 146.058 47.8828 149.204 49.0904L134.336 63.9308L135.197 64.7895C134.713 65.2726 134.283 65.863 133.96 66.5339L123.152 92.2429L148.908 81.428L149.096 81.3475C149.688 81.0523 150.198 80.6497 150.655 80.1935L151.489 81.0254L165.55 66.9901C166.249 69.4322 166.598 71.928 166.598 74.4506C166.598 89.4788 154.366 101.689 139.31 101.689C124.255 101.689 112.022 89.4788 112.022 74.4506C112.022 59.4223 124.255 47.2119 139.31 47.2119L139.337 47.2387ZM146.381 75.9266L134.471 80.9181L139.471 69.0297L140.09 69.6469L146.408 75.9266H146.381ZM151.489 72.4915L148.075 69.0833L143.746 64.7627L142.913 63.9308L154.796 52.0692C158.183 54.404 160.979 57.4364 162.996 61.0056L151.489 72.5184V72.4915Z" fill="black"/>
</g>
<defs>
<clipPath id="clip0_2546_1162">
<rect width="194" height="171" fill="white" transform="translate(9 20)"/>
</clipPath>
</defs>
</svg>
