<svg width="212" height="212" viewBox="0 0 212 212" fill="none" xmlns="http://www.w3.org/2000/svg">
<g clip-path="url(#clip0_2546_1158)">
<path d="M0 159V53L106 0L212 53V159L106 212L0 159Z" fill="#9D7EFC"/>
<g clip-path="url(#clip1_2546_1158)">
<path d="M50.4121 172.574C48.9345 172.574 47.7314 171.371 47.7314 169.894C47.7314 168.416 48.9345 167.213 50.4121 167.213H152.569C154.047 167.213 155.25 168.416 155.25 169.894C155.25 171.371 154.047 172.574 152.569 172.574H50.4121Z" fill="#0A0A0A"/>
<path d="M50.4121 152.463C48.9345 152.463 47.7314 151.26 47.7314 149.782C47.7314 148.305 48.9345 147.102 50.4121 147.102H152.569C154.047 147.102 155.25 148.305 155.25 149.782C155.25 151.26 154.047 152.463 152.569 152.463H50.4121Z" fill="#0A0A0A"/>
<path d="M104.717 115.18C103.239 115.18 102.036 113.977 102.036 112.499V91.8459C102.036 88.6689 99.9918 85.8684 96.9497 84.8784L87.3853 81.7824C84.6117 84.1389 81.352 85.3809 77.9304 85.3809C74.5087 85.3809 71.2506 84.1374 68.4725 81.7794L58.9171 84.8784C55.8779 85.8684 53.8349 88.6689 53.8349 91.8459V112.499C53.8349 113.977 52.6318 115.18 51.1542 115.18C49.6767 115.18 48.4736 113.977 48.4736 112.499V91.8459C48.4736 86.3409 52.0048 81.4914 57.2625 79.7799L64.7583 77.3484C63.2088 74.6469 62.3942 71.5824 62.3942 68.4264C62.3942 59.2584 69.218 52.0779 77.9304 52.0779C86.6427 52.0779 93.4695 59.2599 93.4695 68.4264C93.4695 71.5869 92.655 74.6514 91.1039 77.3514L98.6042 79.7784C103.865 81.4899 107.398 86.3394 107.398 91.8444V112.498C107.398 113.975 106.195 115.178 104.717 115.178V115.18ZM77.9304 57.4389C72.1296 57.4389 67.7554 62.1624 67.7554 68.4264C67.7554 74.6904 72.3201 80.0199 77.9304 80.0199C83.5406 80.0199 88.1083 74.8194 88.1083 68.4264C88.1083 62.0334 83.7326 57.4389 77.9304 57.4389Z" fill="#0A0A0A"/>
<path d="M42.1438 196C31.5879 196 23 187.413 23 176.857V45.4345C23 34.879 31.5879 26.2915 42.1438 26.2915H110.412C111.889 26.2915 113.092 27.4945 113.092 28.972C113.092 30.4495 111.889 31.6525 110.412 31.6525H42.1438C34.543 31.6525 28.3597 37.8355 28.3597 45.436V176.857C28.3597 184.458 34.543 190.641 42.1438 190.641H160.838C168.437 190.641 174.619 184.458 174.619 176.86V93.4375C174.619 91.96 175.822 90.757 177.3 90.757C178.777 90.757 179.98 91.96 179.98 93.4375V176.859C179.98 187.414 171.392 196.002 160.836 196.002H42.1438V196Z" fill="#0A0A0A"/>
<path d="M50.4121 132.351C48.9345 132.351 47.7314 131.148 47.7314 129.67C47.7314 128.193 48.9345 126.99 50.4121 126.99H152.569C154.047 126.99 155.25 128.193 155.25 129.67C155.25 131.148 154.047 132.351 152.569 132.351H50.4121Z" fill="#0A0A0A"/>
<path d="M120.461 112.24C118.983 112.24 117.78 111.037 117.78 109.559C117.78 108.082 118.983 106.879 120.461 106.879H152.57C154.047 106.879 155.25 108.082 155.25 109.559C155.25 111.037 154.047 112.24 152.57 112.24H120.461Z" fill="#0A0A0A"/>
<path d="M145.998 71.014C145.282 71.014 144.609 70.735 144.102 70.2295L129.679 55.807C128.633 54.7615 128.633 53.062 129.679 52.0165C130.186 51.5095 130.858 51.232 131.575 51.232C132.292 51.232 132.964 51.511 133.471 52.0165L145.998 64.543L165.499 45.043C166.006 44.536 166.678 44.2585 167.395 44.2585C168.112 44.2585 168.784 44.5375 169.291 45.043C169.798 45.55 170.075 46.222 170.075 46.939C170.075 47.656 169.796 48.328 169.291 48.835L147.894 70.231C147.388 70.738 146.715 71.0155 145.998 71.0155V71.014Z" fill="#0A0A0A"/>
<path d="M149.936 94.126C128.395 94.126 110.871 76.6015 110.871 55.063C110.871 33.5245 128.396 16 149.936 16C171.475 16 189 33.523 189 55.063C189 76.603 171.477 94.126 149.936 94.126ZM149.936 21.361C131.351 21.361 116.231 36.4795 116.231 55.063C116.231 73.6465 131.35 88.765 149.936 88.765C168.522 88.765 183.639 73.6465 183.639 55.063C183.639 36.4795 168.52 21.361 149.936 21.361Z" fill="#0A0A0A"/>
</g>
</g>
<defs>
<clipPath id="clip0_2546_1158">
<rect width="212" height="212" fill="white"/>
</clipPath>
<clipPath id="clip1_2546_1158">
<rect width="166" height="180" fill="white" transform="translate(23 16)"/>
</clipPath>
</defs>
</svg>
