<svg width="212" height="212" viewBox="0 0 212 212" fill="none" xmlns="http://www.w3.org/2000/svg">
<g clip-path="url(#clip0_2546_1206)">
<path d="M0 159V53L106 0L212 53V159L106 212L0 159Z" fill="#9D7EFC"/>
<g clip-path="url(#clip1_2546_1206)">
<path d="M105.714 201C105.387 201 105.059 201 104.732 200.906C103.936 200.719 26 182.831 26 102.286V40.3314C26 37.7558 28.1051 35.6485 30.6781 35.6485C72.8741 35.6485 102.58 13.2176 102.86 12.9835C104.545 11.7191 106.884 11.6723 108.568 12.9835C108.848 13.2176 138.741 35.6953 180.75 35.6953C183.323 35.6953 185.428 37.8026 185.428 40.3782V102.332C185.428 104.44 185.381 106.547 185.288 108.561C185.147 111.136 182.855 113.103 180.376 113.009C177.803 112.869 175.791 110.668 175.932 108.092C176.025 106.219 176.072 104.299 176.072 102.332V44.9206C140.378 43.6562 114.135 28.0623 105.714 22.396C97.2936 28.0623 71.0497 43.6562 35.3561 44.9206V102.286C35.3561 171.264 96.6386 189.199 105.714 191.494C108.193 190.838 115.211 188.825 123.771 184.704C126.11 183.58 128.917 184.563 130.04 186.905C131.163 189.246 130.18 192.056 127.888 193.18C116.099 198.893 107.117 200.86 106.743 200.953C106.416 201.047 106.088 201.047 105.761 201.047L105.714 201Z" fill="#0A0A0A"/>
<path d="M158.763 172.996C157.547 172.996 156.377 172.528 155.442 171.638L142.53 158.714C140.706 156.887 140.706 153.937 142.53 152.111C144.355 150.285 147.302 150.285 149.126 152.111L162.038 165.036C163.862 166.862 163.862 169.812 162.038 171.638C161.102 172.575 159.933 172.996 158.717 172.996H158.763Z" fill="#0A0A0A"/>
<path d="M158.763 172.996C157.547 172.996 156.377 172.528 155.442 171.638C153.617 169.812 153.617 166.862 155.442 165.036L176.727 143.729C178.551 141.902 181.498 141.902 183.323 143.729C185.147 145.555 185.147 148.505 183.323 150.331L162.038 171.638C161.102 172.575 159.933 172.996 158.716 172.996H158.763Z" fill="#0A0A0A"/>
<path d="M163.161 196.317C140.612 196.317 122.274 177.96 122.274 155.436C122.274 132.911 140.612 114.554 163.161 114.554C185.709 114.554 204 132.911 204 155.436C204 177.96 185.662 196.317 163.161 196.317ZM163.161 123.873C145.805 123.873 131.631 138.016 131.631 155.389C131.631 172.762 145.758 186.905 163.161 186.905C180.563 186.905 194.644 172.762 194.644 155.389C194.644 138.016 180.516 123.873 163.161 123.873Z" fill="#0A0A0A"/>
</g>
</g>
<defs>
<clipPath id="clip0_2546_1206">
<rect width="212" height="212" fill="white"/>
</clipPath>
<clipPath id="clip1_2546_1206">
<rect width="178" height="189" fill="white" transform="translate(26 12)"/>
</clipPath>
</defs>
</svg>
