<svg width="212" height="212" viewBox="0 0 212 212" fill="none" xmlns="http://www.w3.org/2000/svg">
<path d="M0 159V53L106 0L212 53V159L106 212L0 159Z" fill="#9D7EFC"/>
<g clip-path="url(#clip0_2546_1154)">
<path d="M24.7941 151.453C21.0706 150.922 17.353 146.815 17.0118 143.068L16.9941 37.7387C17.5177 33.7436 20.4177 30.4202 24.3412 29.495C73.1883 28.4992 122.188 29.3654 171.094 29.059C176.141 29.4361 180.018 32.3293 180.924 37.4558L180.971 96.5403C183.753 98.2079 186.888 99.5278 189.653 101.372C201.359 109.18 209.929 122.951 210.877 137.187C213.718 179.808 166.076 204.674 132.606 177.922C131.588 177.109 130.676 175.512 129.347 175.3L43.1353 175.153C41.2118 174.057 41.4647 171.664 43.3588 170.639C47.3353 170.162 52.0706 171.063 55.9471 170.598C56.2706 170.556 56.5883 170.598 56.8177 170.291L65.9412 152.06L65.6236 151.459H24.7941V151.453ZM21.7118 38.6344V118.95L22.153 119.392H120.559C122.188 117.241 123.382 114.819 124.988 112.65C136.465 97.1885 156.888 89.8228 175.612 95.1497L176.218 94.8256V38.3397C176.218 36.8902 174.1 34.598 172.641 34.2739L26.5471 34.0617C24.1471 34.0264 22.0294 36.3775 21.7118 38.6344ZM160.653 98.4966C141.206 99.4689 124.565 114.371 121.135 133.498C120.882 134.907 120.524 136.804 120.529 138.201C120.529 138.542 120.547 138.584 120.847 138.802H127.312C127.488 138.802 128.465 139.579 128.641 139.821C129.794 141.394 128.441 143.798 126.724 143.798H120.406C121.094 150.351 122.706 156.485 125.935 162.236C132.994 174.799 145.894 182.813 160.235 184.092C160.482 184.156 160.941 183.791 160.941 183.661V176.897C160.941 176.201 162.671 175.329 163.394 175.365C164.118 175.4 165.641 176.555 165.641 177.191V183.661C165.641 183.785 166.1 184.156 166.347 184.092C187.341 182.512 205.029 165.023 205.882 143.804H198.976C198.359 143.804 196.912 142.602 196.777 141.883C196.588 140.87 197.3 138.807 198.388 138.807H205.877C205.118 117.341 186.776 99.1389 165.341 98.5025V105.414C165.341 106.133 163.9 107.023 163.129 107.053C162.429 107.082 160.641 106.275 160.641 105.709V98.5025L160.653 98.4966ZM115.712 146.745C116.029 144.977 115.394 142.932 115.406 141.318C115.406 140.834 115.694 140.328 115.706 139.827C115.859 134.547 116.506 129.633 118.529 124.701L118.206 124.094H22.153L21.7118 124.536V142.19C21.7118 144.075 24.3824 146.751 26.2647 146.751H115.712V146.745ZM125.406 170.574L119.865 161.264L116.406 151.488L71.6412 151.594C68.6059 157.852 64.9059 163.992 62.5412 170.574H125.4H125.406Z" fill="black"/>
<path d="M121.883 66.1525C123.647 70.896 121.924 76.3701 116.965 78.1379C114.994 78.8391 113.677 78.6977 111.653 78.5622L100.253 97.6186C99.8474 98.5261 100.824 98.915 101.259 99.5867C107.941 109.905 93.4415 118.549 87.3768 109.963C86.818 109.168 86.518 107.506 85.5944 107.335L66.5474 107.324C63.918 115.084 52.765 115.603 50.0591 107.624C46.2886 96.4873 62.965 91.1604 66.5356 102.356L86.0474 102.203C86.965 99.5985 88.8238 97.3594 91.5533 96.5344C92.818 96.1514 95.1474 96.3517 95.7474 95.733L107.441 75.7868C102.318 69.3345 107.23 60.2835 115.536 61.4738C116.683 61.6388 117.553 62.558 118.718 62.2752L137.853 53.2419C138.136 51.6274 138.012 50.2309 138.606 48.6399C140.512 43.5369 147.271 41.4097 151.689 44.6801C160.424 51.1442 152.259 64.644 142.047 59.0402C141.336 58.6513 140.583 57.5435 139.718 57.6613L121.877 66.1643L121.883 66.1525ZM146.194 47.9563C142.124 48.5161 141.912 54.6561 145.959 55.4222C151.694 56.5123 151.783 47.1844 146.194 47.9563ZM113.877 66.2055C107.965 66.5296 110.036 75.7102 115.483 73.4121C119.465 71.7327 117.559 65.9993 113.877 66.2055ZM58.0356 100.954C52.4591 101.113 54.165 110.665 59.9003 108.06C63.5886 106.387 61.8944 100.842 58.0356 100.954ZM97.1062 102.126C94.0356 98.9503 88.765 102.81 91.2003 106.723C94.1238 111.419 100.806 105.957 97.1062 102.126Z" fill="black"/>
<path d="M56.0821 67.6079H72.6762C74.3998 67.6079 74.3821 71.0079 74.2998 72.1806C72.8586 93.7001 40.7645 97.7424 34.0351 76.5941C30.0115 63.9369 39.7998 48.0919 53.5939 49.3588C54.4351 49.4354 56.0762 50.0187 56.0762 50.991V67.6138L56.0821 67.6079ZM68.8586 72.3161H52.7056C52.6115 72.3161 51.3821 71.0845 51.3821 70.9903V54.8094C50.7292 54.0669 48.6762 54.9626 47.7821 55.322C35.2115 60.3719 34.5292 78.2499 46.7233 84.1895C55.0645 88.2554 65.4056 84.2779 68.5645 75.5393C68.788 74.9206 69.5939 72.5164 68.8645 72.3102L68.8586 72.3161Z" fill="black"/>
<path d="M62.4649 41.7927C63.5178 41.6042 65.6237 41.8988 66.7237 42.0932C74.0767 43.3719 79.959 48.905 81.7825 56.1351C82.4178 58.6454 83.7061 63.654 80.0237 64.0901C76.3414 64.5261 67.1178 64.4554 63.259 64.096C61.4649 63.931 60.6884 63.1119 60.4825 61.2852C59.9943 56.9424 60.4414 50.5372 60.5002 45.9764C60.5237 44.2263 59.8825 42.2523 62.4649 41.7927ZM77.2296 59.0755C77.3472 53.678 70.9296 46.9664 65.6296 47.0017C64.959 47.0017 65.2002 47.1903 65.1767 47.7501C65.1414 48.5809 65.4649 49.2939 65.4943 50.0894C65.6061 53.071 65.3884 56.088 65.4825 59.0755H77.2296Z" fill="black"/>
<path d="M143.53 120.918C144.412 120.658 145.712 120.794 146.406 121.442L158.888 134.559C159.324 134.789 160.677 133.928 161.412 133.828C165.624 133.233 170.165 135.136 171.871 139.191C175.6 148.065 165.971 155.825 158.006 150.993L140.394 167.51C137.8 168.135 136.253 165.795 137.6 163.527L154.73 147.145C153.324 143.975 153.788 140.835 155.318 137.818L142.9 124.96C141.788 123.882 141.988 121.383 143.53 120.924V120.918ZM162.941 138.572C157.924 138.967 157.265 146.238 162.177 147.428C168.918 149.06 169.624 138.047 162.941 138.572Z" fill="black"/>
<path d="M85.6704 132.396L109.67 132.349C112.617 132.803 112.906 136.621 109.965 137.317H85.6175C82.6586 136.497 82.741 133.198 85.6704 132.402V132.396Z" fill="black"/>
</g>
<defs>
<clipPath id="clip0_2546_1154">
<rect width="194" height="160" fill="white" transform="translate(17 29)"/>
</clipPath>
</defs>
</svg>
