<svg width="212" height="212" viewBox="0 0 212 212" fill="none" xmlns="http://www.w3.org/2000/svg">
<path d="M0 159V53L106 0L212 53V159L106 212L0 159Z" fill="#FF3A00"/>
<g clip-path="url(#clip0_2546_1150)">
<path d="M106.662 77.0724C106.662 75.7411 105.58 74.6607 104.246 74.6607H78.7832C78.2058 74.6607 77.6649 74.378 77.3347 73.9041L68.9748 61.9054C67.7415 60.1373 65.7173 59.0824 63.5589 59.0824H15.6437C12.0055 59.0824 9.04688 62.0375 9.04688 65.6674V147.063C9.04688 150.693 12.0055 153.648 15.6437 153.648H129.85C133.488 153.648 136.447 150.693 136.447 147.063V117.793C136.447 116.462 135.364 115.381 134.031 115.381C132.697 115.381 131.615 116.462 131.615 117.793V147.063C131.615 148.033 130.824 148.825 129.85 148.825H15.6437C14.6699 148.825 13.8789 148.033 13.8789 147.063V65.6669C13.8789 64.6965 14.6699 63.9052 15.6437 63.9052H63.5584C64.1358 63.9052 64.6767 64.1879 65.0069 64.6618L73.3668 76.6605C74.6001 78.4285 76.6243 79.4835 78.7826 79.4835H104.245C105.579 79.4835 106.661 78.403 106.661 77.0718L106.662 77.0724Z" fill="black"/>
<path d="M104.798 88.9084C104.798 87.5771 103.716 86.4967 102.382 86.4967H21.4414C20.1077 86.4967 19.0254 87.5771 19.0254 88.9084C19.0254 90.2396 20.1077 91.3201 21.4414 91.3201H102.381C103.715 91.3201 104.797 90.2396 104.797 88.9084H104.798Z" fill="black"/>
<path d="M28.7757 80.2882C30.9558 80.2882 32.7232 78.524 32.7232 76.3477C32.7232 74.1714 30.9558 72.4072 28.7757 72.4072C26.5955 72.4072 24.8281 74.1714 24.8281 76.3477C24.8281 78.524 26.5955 80.2882 28.7757 80.2882Z" fill="black"/>
<path d="M43.8967 80.2882C46.0769 80.2882 47.8443 78.524 47.8443 76.3477C47.8443 74.1714 46.0769 72.4072 43.8967 72.4072C41.7166 72.4072 39.9492 74.1714 39.9492 76.3477C39.9492 78.524 41.7166 80.2882 43.8967 80.2882Z" fill="black"/>
<path d="M53.3795 103.439C51.9141 103.439 51.0192 104.252 50.4186 105.593L39.8556 128.962C38.4773 132.116 42.0824 132.942 43.4167 131.717C43.7898 131.37 44.1496 130.812 44.4961 130.039L46.4646 125.404H60.2247C62.0824 129.509 62.3401 130.843 63.3238 131.696C64.3156 132.559 66.9213 132.559 67.2249 130.637C67.3049 130.133 67.1976 129.575 66.9045 128.963L56.301 105.594C55.7142 104.289 54.8234 103.439 53.3795 103.439V103.439ZM53.2994 109.308H53.3795L58.4796 121.33H48.2364L53.2994 109.308Z" fill="black"/>
<path d="M73.9064 103.755C72.2965 103.755 71.3047 104.605 71.3047 106.354V129.599C71.3047 132.762 74.7659 132.656 75.7867 131.536C76.2127 131.071 76.4274 130.425 76.4274 129.599V121.372H83.55C89.4313 121.372 93.2326 118.37 93.2326 112.542C93.2326 106.715 89.4406 103.755 83.55 103.755H73.9064V103.755ZM88.2723 112.542C88.2723 115.886 86.1407 117.337 82.7509 117.337H76.428V107.79H82.7509C86.0937 107.79 88.2723 109.166 88.2723 112.542Z" fill="black"/>
<path d="M99.9568 103.439C98.3034 103.439 97.3945 104.367 97.3945 106.073V129.599C97.3945 132.755 100.85 132.663 101.876 131.536C102.302 131.072 102.517 130.426 102.517 129.599V106.073C102.517 104.324 101.565 103.439 99.9562 103.439H99.9568Z" fill="black"/>
<path d="M195.774 44.9571C194.593 34.1043 184.273 25.8896 172.872 28.2793C169.487 18.9338 160.568 12.3673 150.392 12.0157C139.426 11.6328 129.684 18.2363 126.01 28.2637C115.111 25.9731 104.49 33.697 103.216 44.9542C93.9518 46.2698 86.9824 54.127 86.9824 63.7332C86.9824 65.0645 88.0648 66.1449 89.3984 66.1449C90.732 66.1449 91.8144 65.0645 91.8144 63.7332C91.8144 56.0081 97.8576 49.7938 105.573 49.5928C106.881 49.558 107.924 48.3681 107.924 47.0618C107.924 37.1103 117.759 30.2634 126.804 33.4862C128.14 33.9652 129.6 33.1942 129.957 31.8189C132.326 22.6901 140.7 16.4816 150.23 16.8396C159.095 17.1443 166.773 23.2961 168.902 31.7998C169.246 33.1733 170.688 33.945 172.01 33.5047C181.978 30.1823 191.059 37.568 191.057 47.1805C191.057 48.4869 192.1 49.5574 193.408 49.5922C201.125 49.7932 207.168 56.0075 207.168 63.7326C207.168 71.4577 200.709 78.1054 192.767 78.1054C191.433 78.1054 190.351 79.1858 190.351 80.517C190.351 81.8483 191.433 82.9287 192.767 82.9287C203.373 82.9287 212 74.3184 212 63.732C212 54.1323 205.036 46.2756 195.774 44.9565V44.9571Z" fill="black"/>
<path d="M75.3412 193.778V162.591C75.3412 161.26 74.2589 160.179 72.9252 160.179C71.5916 160.179 70.5093 161.26 70.5093 162.591V193.769C66.5443 194.833 63.6025 198.417 63.6025 202.708C63.6025 207.833 67.777 212 72.9096 212C78.0422 212 82.2184 207.833 82.2184 202.708C82.2184 198.429 79.2905 194.853 75.3412 193.778ZM72.9096 207.177C70.4414 207.177 68.4345 205.173 68.4345 202.708C68.4345 200.242 70.4414 198.239 72.9096 198.239C72.9148 198.239 72.9194 198.242 72.9247 198.242C72.9264 198.242 72.9282 198.241 72.9299 198.241C75.3883 198.252 77.3858 200.249 77.3858 202.707C77.3858 205.165 75.3772 207.176 72.909 207.176L72.9096 207.177Z" fill="black"/>
<path d="M184.336 69.0396L176.681 55.7879C175.14 53.1595 171.728 52.2332 169.033 53.747L165.169 55.9843C164.389 55.4849 163.576 55.0186 162.729 54.5829V50.0985C162.729 47.0212 160.222 44.5179 157.138 44.5179H141.842C138.759 44.5179 136.251 47.0206 136.251 50.0985V54.5829C135.404 55.0186 134.592 55.4849 133.811 55.9843L129.919 53.729C127.25 52.2373 123.838 53.1572 122.293 55.7983L114.663 69.0124C113.123 71.5904 113.937 75.0182 116.668 76.6402L120.543 78.8839C120.457 80.6282 120.457 79.9498 120.543 81.6947L116.679 83.932C114.059 85.4272 113.066 88.8892 114.644 91.5378L122.299 104.79C123.336 106.561 125.225 107.559 127.171 107.559C129.561 107.559 130.674 106.226 133.811 104.594C134.591 105.093 135.404 105.559 136.251 105.995V110.48C136.251 113.557 138.758 116.06 141.842 116.06H157.138C160.221 116.06 162.729 113.557 162.729 110.48V105.995C163.576 105.559 164.388 105.093 165.169 104.594L169.061 106.849C171.746 108.349 175.155 107.4 176.687 104.78L184.319 91.5656C185.929 88.8625 184.902 85.4075 182.276 83.9349L178.436 81.7208C178.483 80.7771 178.542 80.4486 178.46 78.8433L182.283 76.6402C185.036 75.0361 185.848 71.5817 184.336 69.0408L184.336 69.0396ZM179.86 72.4657L174.751 75.4115C174.004 75.8419 173.543 76.6391 173.543 77.4999V77.5312C173.543 77.592 173.573 77.6419 173.578 77.7015L173.549 77.7038C173.723 80.2743 173.697 80.5251 173.543 83.077C173.543 83.8138 173.983 84.5669 174.57 84.9846C174.64 85.0356 174.675 85.1208 174.751 85.1648L179.883 88.1262C180.209 88.3047 180.374 88.7531 180.149 89.125L172.506 102.358C172.289 102.729 171.817 102.858 171.458 102.659C171.131 102.47 166.016 99.5091 166.343 99.698L166.317 99.6829C165.615 99.2745 164.478 99.2375 163.688 99.815C162.375 100.763 160.904 101.608 159.315 102.324C158.627 102.636 157.896 103.549 157.896 104.522V110.479C157.896 110.89 157.549 111.236 157.138 111.236H141.842C141.431 111.236 141.084 110.89 141.084 110.479V104.522C141.084 103.524 140.451 102.68 139.665 102.324C138.076 101.608 136.605 100.763 135.292 99.815C134.495 99.2346 133.357 99.2786 132.663 99.6829C132.237 99.9291 127.223 102.83 127.55 102.641C127.166 102.86 126.693 102.735 126.48 102.367L118.812 89.0966C118.632 88.7913 118.729 88.3215 119.094 88.1071L124.234 85.13C125.058 84.6521 125.472 83.7617 125.41 82.8736L125.43 82.8725C125.269 80.4764 125.273 80.0622 125.43 77.694C125.487 76.8691 124.956 75.8645 124.233 75.4457L119.115 72.4813C118.776 72.2809 118.599 71.8366 118.83 71.4513L126.473 58.2181C126.69 57.8473 127.162 57.7187 127.521 57.9169C128.054 58.2239 125.588 56.8034 132.74 60.92C133.435 61.2925 134.523 61.3203 135.291 60.7619C136.604 59.8135 138.075 58.9689 139.664 58.2529C140.348 57.9435 141.083 56.9517 141.083 56.0549V50.0979C141.083 49.6866 141.431 49.3413 141.841 49.3413H157.138C157.548 49.3413 157.896 49.6866 157.896 50.0979V56.0549C157.896 56.9523 158.625 57.9412 159.315 58.2529C160.903 58.9689 162.374 59.8135 163.688 60.7619C164.447 61.3139 165.506 61.3134 166.239 60.92C166.672 60.6871 171.763 57.7593 171.429 57.9354C171.818 57.7187 172.287 57.841 172.499 58.2088L180.165 71.4797C180.368 71.8209 180.204 72.2624 179.858 72.4657H179.86Z" fill="black"/>
<path d="M149.49 65.7393C141.452 65.7393 134.913 72.2646 134.913 80.2881C134.913 88.3116 141.452 94.8369 149.49 94.8369C157.528 94.8369 164.066 88.3116 164.066 80.2881C164.066 72.2646 157.528 65.7393 149.49 65.7393ZM149.49 90.0136C144.116 90.0136 139.745 85.652 139.745 80.2881C139.745 74.9243 144.116 70.5626 149.49 70.5626C154.863 70.5626 159.234 74.9243 159.234 80.2881C159.234 85.652 154.863 90.0136 149.49 90.0136Z" fill="black"/>
<path d="M136.244 176.638C131.896 176.638 128.332 179.895 127.78 184.086H114.859C114.483 184.086 114.178 183.782 114.178 183.408V163.615C114.178 162.284 113.095 161.204 111.762 161.204C110.428 161.204 109.346 162.284 109.346 163.615V183.408C109.346 186.441 111.819 188.91 114.859 188.91H128.55C129.941 191.77 132.852 193.762 136.245 193.762C140.975 193.762 144.822 189.921 144.822 185.198C144.822 180.475 140.975 176.638 136.245 176.638H136.244ZM136.244 188.938C134.179 188.938 132.499 187.261 132.499 185.198C132.499 183.135 134.179 181.461 136.244 181.461C138.309 181.461 139.989 183.138 139.989 185.198C139.989 187.258 138.309 188.938 136.244 188.938Z" fill="black"/>
<path d="M34.0584 161.203C32.7247 161.203 31.6424 162.284 31.6424 163.615V183.408C31.6424 183.781 31.3371 184.086 30.9628 184.086H18.0402C17.4877 179.895 13.9238 176.637 9.5758 176.637C4.84771 176.637 1 180.477 1 185.198C1 189.918 4.84713 193.761 9.5758 193.761C12.9685 193.761 15.8801 191.769 17.2706 188.909H30.9634C34.0021 188.909 36.4749 186.441 36.4749 183.408V163.615C36.4749 162.284 35.3926 161.203 34.0589 161.203H34.0584ZM9.5758 188.938C7.51208 188.938 5.83198 187.261 5.83198 185.198C5.83198 183.135 7.51208 181.461 9.5758 181.461C11.6395 181.461 13.3208 183.138 13.3208 185.198C13.3208 187.258 11.6407 188.938 9.5758 188.938Z" fill="black"/>
</g>
<defs>
<clipPath id="clip0_2546_1150">
<rect width="211" height="200" fill="white" transform="translate(1 12)"/>
</clipPath>
</defs>
</svg>
