<svg width="212" height="212" viewBox="0 0 212 212" fill="none" xmlns="http://www.w3.org/2000/svg">
<path d="M0 159V53L106 0L212 53V159L106 212L0 159Z" fill="#FF3A00"/>
<g clip-path="url(#clip0_2546_1202)">
<path d="M51.1678 69.6251C55.6422 43.3069 76.0319 21.4394 102.021 15.1514C111.831 12.7798 123.955 12.7942 134.072 13.2166C161.617 14.3717 186.304 33.0915 195.238 58.9369C206.545 91.6442 191.559 127.153 160.89 142.422C156.075 169.079 135.534 190.994 109.006 197.04C99.6301 199.177 88.048 199.202 78.4012 198.794C45.6987 197.408 18.1687 172.57 13.6545 140.238C9.57081 110.996 24.8677 82.5839 51.1642 69.6215L51.1678 69.6251ZM160.81 47.3101H169.665L169.922 46.8805C164.492 38.9609 157.385 32.1169 148.913 27.5109C148.635 27.5615 148.458 27.7636 148.248 27.9224C147.333 28.6191 144.692 31.3155 143.911 32.2504C143.567 32.6583 143.264 32.9543 143.184 33.5102C142.855 35.8349 143.839 35.445 145.311 36.4521C150.541 40.0365 150.776 47.7107 145.705 51.5334C138.746 56.7819 129.272 50.5299 130.983 42.0724C131.595 39.0511 134.007 36.5965 136.778 35.4125C137.4 33.734 136.539 31.4671 137.512 30.0124C138.095 29.1425 142.927 24.9228 142.829 24.5041C136.695 21.739 129.96 20.0533 123.221 19.5443C122.212 19.4685 119.937 19.2483 119.058 19.353C118.794 19.3855 118.595 19.3747 118.436 19.631V45.96L135.946 63.4887C136.105 64.0915 135.259 64.3117 134.973 64.6257C133.967 65.7231 132.976 66.8854 131.815 67.8023L131.454 67.7878L112.583 48.7359L112.106 46.1477L112.113 19.7212C103.399 20.6128 94.8519 23.3273 87.3535 27.7853L87.4946 33.5644L92.8371 38.8092C101.377 34.853 109.794 44.8591 104.314 52.6019C98.5486 60.7417 85.6101 55.2839 87.6212 45.1406C87.708 44.7075 88.2868 43.3791 88.1819 43.1697C87.1076 41.7439 81.2153 36.925 81.2153 35.4992V31.9833C80.6293 32.1277 80.0831 32.6331 79.6093 32.994C77.6343 34.4921 75.9487 36.315 74.0678 37.9213L73.8038 38.3869C73.8038 38.8995 79.6165 44.1263 80.405 45.1479C80.6691 45.4872 81.2153 46.2885 81.2153 46.682V56.5112H75.0698V48.6673L69.4668 43.2528C64.2112 50.1545 60.131 58.103 58.2646 66.6111C64.0014 64.6799 70.0022 63.3046 76.0645 62.8281C82.8683 62.2939 92.0269 62.2939 98.8307 62.8281C132.159 65.4487 159.034 92.1352 161.631 125.402C161.837 125.658 165.657 121.341 165.961 120.98C171.014 114.934 175.63 106.827 177.76 99.2138C177.984 98.4088 178.259 97.5822 178.256 96.7303H173.647C173.286 96.7303 172.414 96.1961 172.11 95.9217L162.89 86.717C162.452 86.5221 160.944 87.2549 160.257 87.3343C150.491 88.4713 145.456 76.9348 152.954 70.8524C159.349 65.6653 168.8 71.0799 167.932 79.3063C167.838 80.2088 167.024 81.7609 167.401 82.4034L175.546 90.5072L179.525 90.518C179.71 90.3953 179.822 89.8358 179.862 89.5939C180.788 84.2299 180.469 77.173 179.67 71.7874C178.733 65.4993 176.679 59.1607 173.738 53.5404L162.97 53.6198L145.43 70.9319C145.141 70.9824 141.303 67.1345 141.227 66.8529C141.173 66.6435 141.227 66.4847 141.379 66.3403L159.725 48.0392C159.96 47.8515 160.571 47.3714 160.814 47.3245L160.81 47.3101ZM173.463 40.9967H177.709C175.181 37.8346 172.049 34.9541 168.837 32.449C165.455 29.8139 161.79 27.5326 157.924 25.6664L166.623 33.124L173.463 40.9967ZM139.907 41.04C136.008 41.2386 136.174 47.227 140.03 47.274C144.222 47.3281 144.161 40.8235 139.907 41.04ZM96.523 44.1083C92.6273 44.3465 92.8118 50.2917 96.6568 50.3386C100.903 50.3927 100.668 43.852 96.523 44.1083ZM188.731 59.5722C187.295 55.2297 185.074 51.0858 182.495 47.3101H177.525C178.48 49.1979 179.565 51.0316 180.448 52.9592C181.442 55.1286 182.144 57.4641 183.218 59.5722H188.731ZM192.706 78.144C192.424 73.964 192.03 69.6251 190.626 65.7014H185.204C185.059 65.7014 184.868 66.131 184.926 66.3223C185.797 70.2171 186.282 74.1661 186.561 78.144H192.706ZM123.745 85.829C87.0967 51.241 26.5858 72.7295 19.8001 122.265C13.3001 169.704 61.2162 206.479 105.548 187.637C146.468 170.245 156.188 116.454 123.745 85.829ZM157.96 75.1227C153.493 76.0468 156.238 83.425 160.351 80.7538C163.331 78.8154 161.331 74.426 157.96 75.1227ZM140.482 90.5866C140.373 90.1101 139.9 89.5975 139.585 89.2294C138.46 87.9263 136.717 86.2622 135.425 85.0854C131.11 81.1437 126.151 77.783 120.877 75.2599L126.932 80.2196C130.267 83.4647 133.497 86.8217 136.235 90.5902H140.482V90.5866ZM184.936 96.7195H190.63C192.069 93.0159 192.247 88.854 192.724 84.905C192.764 84.7173 192.583 84.2769 192.438 84.2769H186.564L184.936 96.7195ZM151.507 109.162C151.308 107.96 150.722 106.632 150.216 105.491C148.885 102.481 147.123 99.4339 145.271 96.7195H140.301C142.153 100.015 143.763 103.426 145.134 106.953C145.333 107.466 145.647 109.162 146.172 109.162H151.503H151.507ZM188.731 102.852H183.218L177.706 115.295H182.495C184.162 112.862 185.649 110.277 186.897 107.606C187.175 107.014 188.944 103.069 188.731 102.852ZM153.674 115.295H147.709C148.505 119.349 149.116 123.424 149.337 127.557H155.482C155.283 123.424 154.618 119.316 153.674 115.295ZM177.709 121.424H173.463C170.851 124.965 167.893 128.232 164.702 131.253C164.066 131.856 161.772 133.444 161.66 134.17C161.61 134.495 161.639 134.563 161.899 134.762C167.144 131.611 172.352 127.709 176.451 123.139C176.595 122.976 177.851 121.536 177.709 121.421V121.424ZM155.482 133.867H149.337C149.141 138.003 148.505 142.079 147.709 146.129H153.674C154.603 142.111 155.301 137.993 155.482 133.867ZM151.507 152.442H145.723C144.551 156.77 142.417 160.777 140.301 164.704H145.271C147.893 160.943 150.082 156.806 151.507 152.442ZM140.482 171.014H136.235C132.875 175.194 129.305 179.251 125.207 182.731C124.035 183.724 122.711 184.572 121.528 185.55C121.452 185.612 121 185.89 121.239 185.983C128.632 182.471 135.233 177.252 140.482 171.014Z" fill="black"/>
<path d="M77.3774 75.1335C121.637 72.4768 151.858 119.634 129.67 158.333C108.651 195 55.7506 195.841 33.6065 159.82C11.4625 123.799 35.9142 77.6206 77.3774 75.1335ZM116.88 96.4704C93.9258 72.5418 54.651 77.635 38.1713 106.155C20.8127 136.191 39.6001 174.635 73.7422 179.641C120.486 186.496 149.666 130.647 116.88 96.4704Z" fill="black"/>
<path d="M111.144 99.6181C111.73 99.517 115.072 103.61 115.618 104.314C141.542 137.74 108.188 184.987 67.8827 171.967C67.3148 171.783 64.5549 170.996 64.6092 170.422C64.6454 170.057 66.085 166.798 66.3635 166.21C66.4901 165.946 66.8012 165.148 67.0435 165.091C83.8596 171.88 103.132 165.686 112.731 150.446C122.038 135.668 119.618 116.053 107.067 104L111.144 99.6181Z" fill="black"/>
<path d="M91.1374 88.6193L89.8858 94.5572C75.0556 91.2291 59.4875 96.9757 50.7738 109.357C39.7054 125.084 42.581 146.977 57.357 159.21C57.404 159.405 55.241 161.993 54.9191 162.362C54.6731 162.647 53.559 164.011 53.3131 163.968C49.8334 160.975 46.7697 157.514 44.339 153.615C35.1117 138.819 35.7193 119.872 45.822 105.679C55.8921 91.5287 74.0573 84.3418 91.1337 88.6193H91.1374Z" fill="black"/>
<path d="M79.0058 99.8383C107.295 97.9757 123.334 132.185 103.443 152.356C103.056 152.749 102.069 153.994 101.548 153.522L97.851 149.129C100.69 146.447 102.955 143.216 104.347 139.548C111.394 121.002 94.9754 102.416 75.7865 106.56L74.4229 100.683C74.705 100.217 78.3076 99.8816 79.0058 99.8347V99.8383Z" fill="black"/>
<path d="M81.2121 155.507V161.64C71.6376 161.77 62.5912 157.156 56.7459 149.72C46.4334 136.606 48.5531 117.316 61.5133 106.888L61.875 106.902L65.5029 111.418C65.5029 111.721 63.141 113.714 62.6924 114.212C61.1443 115.93 59.607 118.352 58.6557 120.46C51.1972 137.007 63.2748 155.355 81.2194 155.51L81.2121 155.507Z" fill="black"/>
<path d="M92.2112 115.674L92.1388 116.19L88.6772 120.688H88.3842C82.6692 116.486 74.5342 118.172 70.7652 124.074C68.4864 127.64 68.32 131.752 69.7488 135.675L64.0518 138.007C56.9405 120.587 76.7588 104.899 92.2112 115.674Z" fill="black"/>
<path d="M99.7963 130.827C100.071 131.268 99.4708 134.361 99.3044 135.062C96.6458 146.201 84.438 152.341 73.876 147.753L76.1656 142.173C77.3701 142.418 78.4336 142.923 79.6959 143.039C86.6191 143.671 92.3016 139.296 93.4772 132.491C93.5676 131.964 93.3144 131.127 93.7521 130.78C93.9113 130.636 94.103 130.636 94.3019 130.611C95.1628 130.495 97.9046 130.542 98.8342 130.611C99.1669 130.636 99.4961 130.669 99.7963 130.824V130.827Z" fill="black"/>
</g>
<defs>
<clipPath id="clip0_2546_1202">
<rect width="186" height="186" fill="white" transform="translate(13 13)"/>
</clipPath>
</defs>
</svg>
