<?xml version="1.0" encoding="UTF-8"?>
<svg id="Layer_1" xmlns="http://www.w3.org/2000/svg" xmlns:xlink="http://www.w3.org/1999/xlink" version="1.1" viewBox="0 0 212 212">
  <!-- Generator: Adobe Illustrator 30.0.0, SVG Export Plug-In . SVG Version: 2.1.1 Build 123)  -->
  <defs>
    <style>
      .st0 {
        fill: none;
      }

      .st1 {
        fill: #e93223;
      }

      .st2 {
        clip-path: url(#clippath);
      }
    </style>
    <clipPath id="clippath">
      <rect class="st0" x="1" y="12" width="211" height="200"/>
    </clipPath>
  </defs>
  <path class="st1" d="M0,159V53L106,0l106,53v106l-106,53L0,159Z"/>
  <g class="st2">
    <g>
      <path d="M106.7,77.1c0-1.3-1.1-2.4-2.4-2.4h-25.5c-.6,0-1.1-.3-1.4-.8l-8.4-12c-1.2-1.8-3.3-2.8-5.4-2.8H15.6c-3.6,0-6.6,3-6.6,6.6v81.4c0,3.6,3,6.6,6.6,6.6h114.2c3.6,0,6.6-3,6.6-6.6v-29.3c0-1.3-1.1-2.4-2.4-2.4s-2.4,1.1-2.4,2.4v29.3c0,1-.8,1.8-1.8,1.8H15.6c-1,0-1.8-.8-1.8-1.8v-81.4c0-1,.8-1.8,1.8-1.8h47.9c.6,0,1.1.3,1.4.8l8.4,12c1.2,1.8,3.3,2.8,5.4,2.8h25.5c1.3,0,2.4-1.1,2.4-2.4h0Z"/>
      <path d="M104.8,88.9c0-1.3-1.1-2.4-2.4-2.4H21.4c-1.3,0-2.4,1.1-2.4,2.4s1.1,2.4,2.4,2.4h80.9c1.3,0,2.4-1.1,2.4-2.4h0Z"/>
      <path d="M28.8,80.3c2.2,0,3.9-1.8,3.9-3.9s-1.8-3.9-3.9-3.9-3.9,1.8-3.9,3.9,1.8,3.9,3.9,3.9Z"/>
      <path d="M43.9,80.3c2.2,0,3.9-1.8,3.9-3.9s-1.8-3.9-3.9-3.9-3.9,1.8-3.9,3.9,1.8,3.9,3.9,3.9Z"/>
      <path d="M53.4,103.4c-1.5,0-2.4.8-3,2.2l-10.6,23.4c-1.4,3.2,2.2,4,3.6,2.8.4-.3.7-.9,1.1-1.7l2-4.6h13.8c1.9,4.1,2.1,5.4,3.1,6.3,1,.9,3.6.9,3.9-1.1,0-.5,0-1.1-.3-1.7l-10.6-23.4c-.6-1.3-1.5-2.2-2.9-2.2h0ZM53.3,109.3h0l5.1,12h-10.2l5.1-12Z"/>
      <path d="M73.9,103.8c-1.6,0-2.6.9-2.6,2.6v23.2c0,3.2,3.5,3.1,4.5,1.9.4-.5.6-1.1.6-1.9v-8.2h7.1c5.9,0,9.7-3,9.7-8.8s-3.8-8.8-9.7-8.8h-9.6ZM88.3,112.5c0,3.3-2.1,4.8-5.5,4.8h-6.3v-9.5h6.3c3.3,0,5.5,1.4,5.5,4.8Z"/>
      <path d="M100,103.4c-1.7,0-2.6.9-2.6,2.6v23.5c0,3.2,3.5,3.1,4.5,1.9.4-.5.6-1.1.6-1.9v-23.5c0-1.7-1-2.6-2.6-2.6h0Z"/>
      <path d="M195.8,45c-1.2-10.9-11.5-19.1-22.9-16.7-3.4-9.3-12.3-15.9-22.5-16.3-11-.4-20.7,6.2-24.4,16.2-10.9-2.3-21.5,5.4-22.8,16.7-9.3,1.3-16.2,9.2-16.2,18.8s1.1,2.4,2.4,2.4,2.4-1.1,2.4-2.4c0-7.7,6-13.9,13.8-14.1,1.3,0,2.4-1.2,2.4-2.5,0-10,9.8-16.8,18.9-13.6,1.3.5,2.8-.3,3.2-1.7,2.4-9.1,10.7-15.3,20.3-15,8.9.3,16.5,6.5,18.7,15,.3,1.4,1.8,2.1,3.1,1.7,10-3.3,19,4.1,19,13.7,0,1.3,1,2.4,2.4,2.4,7.7.2,13.8,6.4,13.8,14.1s-6.5,14.4-14.4,14.4-2.4,1.1-2.4,2.4,1.1,2.4,2.4,2.4c10.6,0,19.2-8.6,19.2-19.2s-7-17.5-16.2-18.8h0Z"/>
      <path d="M75.3,193.8v-31.2c0-1.3-1.1-2.4-2.4-2.4s-2.4,1.1-2.4,2.4v31.2c-4,1.1-6.9,4.6-6.9,8.9s4.2,9.3,9.3,9.3,9.3-4.2,9.3-9.3-2.9-7.9-6.9-8.9ZM72.9,207.2c-2.5,0-4.5-2-4.5-4.5s2-4.5,4.5-4.5,0,0,0,0,0,0,0,0c2.5,0,4.5,2,4.5,4.5s-2,4.5-4.5,4.5h0Z"/>
      <path d="M184.3,69l-7.7-13.3c-1.5-2.6-5-3.6-7.6-2l-3.9,2.2c-.8-.5-1.6-1-2.4-1.4v-4.5c0-3.1-2.5-5.6-5.6-5.6h-15.3c-3.1,0-5.6,2.5-5.6,5.6v4.5c-.8.4-1.7.9-2.4,1.4l-3.9-2.3c-2.7-1.5-6.1-.6-7.6,2.1l-7.6,13.2c-1.5,2.6-.7,6,2,7.6l3.9,2.2c0,1.7,0,1.1,0,2.8l-3.9,2.2c-2.6,1.5-3.6,5-2,7.6l7.7,13.3c1,1.8,2.9,2.8,4.9,2.8s3.5-1.3,6.6-3c.8.5,1.6,1,2.4,1.4v4.5c0,3.1,2.5,5.6,5.6,5.6h15.3c3.1,0,5.6-2.5,5.6-5.6v-4.5c.8-.4,1.7-.9,2.4-1.4l3.9,2.3c2.7,1.5,6.1.6,7.6-2.1l7.6-13.2c1.6-2.7.6-6.2-2-7.6l-3.8-2.2c0-.9.1-1.3,0-2.9l3.8-2.2c2.8-1.6,3.6-5.1,2.1-7.6h0ZM179.9,72.5l-5.1,2.9c-.7.4-1.2,1.2-1.2,2.1h0c0,0,0,.1,0,.2h0c.2,2.6.1,2.8,0,5.4,0,.7.4,1.5,1,1.9,0,0,.1.1.2.2l5.1,3c.3.2.5.6.3,1l-7.6,13.2c-.2.4-.7.5-1,.3-.3-.2-5.4-3.1-5.1-3h0c-.7-.4-1.8-.5-2.6.1-1.3.9-2.8,1.8-4.4,2.5-.7.3-1.4,1.2-1.4,2.2v6c0,.4-.3.8-.8.8h-15.3c-.4,0-.8-.3-.8-.8v-6c0-1-.6-1.8-1.4-2.2-1.6-.7-3.1-1.6-4.4-2.5-.8-.6-1.9-.5-2.6-.1-.4.2-5.4,3.1-5.1,3-.4.2-.9,0-1.1-.3l-7.7-13.3c-.2-.3,0-.8.3-1l5.1-3c.8-.5,1.2-1.4,1.2-2.3h0c-.2-2.4-.2-2.8,0-5.2,0-.8-.5-1.8-1.2-2.2l-5.1-3c-.3-.2-.5-.6-.3-1l7.6-13.2c.2-.4.7-.5,1-.3.5.3-1.9-1.1,5.2,3,.7.4,1.8.4,2.6-.2,1.3-.9,2.8-1.8,4.4-2.5.7-.3,1.4-1.3,1.4-2.2v-6c0-.4.3-.8.8-.8h15.3c.4,0,.8.3.8.8v6c0,.9.7,1.9,1.4,2.2,1.6.7,3.1,1.6,4.4,2.5.8.6,1.8.6,2.6.2.4-.2,5.5-3.2,5.2-3,.4-.2.9,0,1.1.3l7.7,13.3c.2.3,0,.8-.3,1h0Z"/>
      <path d="M149.5,65.7c-8,0-14.6,6.5-14.6,14.5s6.5,14.5,14.6,14.5,14.6-6.5,14.6-14.5-6.5-14.5-14.6-14.5ZM149.5,90c-5.4,0-9.7-4.4-9.7-9.7s4.4-9.7,9.7-9.7,9.7,4.4,9.7,9.7-4.4,9.7-9.7,9.7Z"/>
      <path d="M136.2,176.6c-4.3,0-7.9,3.3-8.5,7.4h-12.9c-.4,0-.7-.3-.7-.7v-19.8c0-1.3-1.1-2.4-2.4-2.4s-2.4,1.1-2.4,2.4v19.8c0,3,2.5,5.5,5.5,5.5h13.7c1.4,2.9,4.3,4.9,7.7,4.9s8.6-3.8,8.6-8.6-3.8-8.6-8.6-8.6h0ZM136.2,188.9c-2.1,0-3.7-1.7-3.7-3.7s1.7-3.7,3.7-3.7,3.7,1.7,3.7,3.7-1.7,3.7-3.7,3.7Z"/>
      <path d="M34.1,161.2c-1.3,0-2.4,1.1-2.4,2.4v19.8c0,.4-.3.7-.7.7h-12.9c-.6-4.2-4.1-7.4-8.5-7.4s-8.6,3.8-8.6,8.6,3.8,8.6,8.6,8.6,6.3-2,7.7-4.9h13.7c3,0,5.5-2.5,5.5-5.5v-19.8c0-1.3-1.1-2.4-2.4-2.4h0ZM9.6,188.9c-2.1,0-3.7-1.7-3.7-3.7s1.7-3.7,3.7-3.7,3.7,1.7,3.7,3.7-1.7,3.7-3.7,3.7Z"/>
    </g>
  </g>
</svg>